<svg width="23" height="22" viewBox="0 0 23 22" fill="none" xmlns="http://www.w3.org/2000/svg">
<path fill-rule="evenodd" clip-rule="evenodd" d="M0.150879 1.18585H13.4923V2.37176H1.33679V20.4569H19.7184V8.00482H20.9043V21.6428H0.150879V1.18585Z" fill="#666766"/>
<path fill-rule="evenodd" clip-rule="evenodd" d="M18.5323 5.92954C19.8423 5.92954 20.9041 4.86764 20.9041 3.55772C20.9041 2.24781 19.8423 1.18591 18.5323 1.18591C17.2224 1.18591 16.1605 2.24781 16.1605 3.55772C16.1605 4.86764 17.2224 5.92954 18.5323 5.92954ZM18.5323 7.11545C20.4972 7.11545 22.0901 5.5226 22.0901 3.55772C22.0901 1.59285 20.4972 0 18.5323 0C16.5675 0 14.9746 1.59285 14.9746 3.55772C14.9746 5.5226 16.5675 7.11545 18.5323 7.11545Z" fill="#666766"/>
<path fill-rule="evenodd" clip-rule="evenodd" d="M15.6906 12.2784L11.1207 16.8483L7.85942 13.5871L4.4245 17.022L3.58594 16.1835L7.85942 11.91L11.1207 15.1712L14.8521 11.4398L15.6906 12.2784Z" fill="#666766"/>
</svg>
