<svg width="16" height="15" viewBox="0 0 16 15" fill="none" xmlns="http://www.w3.org/2000/svg">
<path fill-rule="evenodd" clip-rule="evenodd" d="M2.92444 1.03602C4.54911 0.00607269 6.47754 -0.117301 7.75935 0.0769129L7.62763 0.946247C6.49148 0.774104 4.79298 0.892526 3.39521 1.77863C2.0286 2.64497 0.879256 4.2892 0.879256 7.32581C0.879256 11.1705 2.20279 12.7476 3.49958 13.42C4.65552 14.0194 5.86897 13.9616 6.52227 13.9305C6.58864 13.9273 6.64924 13.9244 6.7034 13.9225C6.74765 13.8789 6.80995 13.8072 6.89076 13.7009C7.0688 13.4668 7.29805 13.1161 7.56903 12.6664C8.10904 11.7701 8.78968 10.5225 9.51849 9.12798C10.9749 6.34117 12.61 2.99439 13.671 0.762447L14.4651 1.13996C13.4014 3.37757 11.7611 6.73511 10.2977 9.53524C9.56662 10.9342 8.87616 12.2007 8.32214 13.1202C8.0461 13.5783 7.79761 13.9609 7.59068 14.2331C7.48829 14.3678 7.38609 14.4888 7.28766 14.5803C7.23855 14.626 7.1799 14.6742 7.11333 14.7133C7.0518 14.7494 6.94688 14.7995 6.81423 14.7995C6.76667 14.7995 6.69601 14.8034 6.60556 14.8084C5.99714 14.8421 4.49293 14.9255 3.09484 14.2006C1.42414 13.3343 0 11.3944 0 7.32581C0 4.03178 1.26861 2.08571 2.92444 1.03602Z" fill="black"/>
<path fill-rule="evenodd" clip-rule="evenodd" d="M8.68165 0.576606C8.94985 0.87834 9.19239 1.31615 9.42069 1.88691C9.60621 2.35072 10.1633 4.00571 10.7804 5.83895C10.9143 6.23696 11.0511 6.64336 11.1876 7.0478C11.5722 8.18805 11.9562 9.31941 12.2713 10.2202C12.5924 11.138 12.8287 11.7769 12.9227 11.965C13.3362 12.792 13.881 13.2607 14.5079 13.2607C14.9966 13.2607 15.175 13.0954 15.2096 13.0634C15.2171 13.0565 15.2179 13.0557 15.2137 13.0641L16.0001 13.4573C15.83 13.7976 15.321 14.1399 14.5079 14.1399C13.3762 14.1399 12.6021 13.2898 12.1363 12.3582C12.0106 12.1067 11.7523 11.3992 11.4414 10.5105C11.1245 9.60465 10.7391 8.46917 10.3545 7.32886C10.2154 6.91678 10.0768 6.50492 9.94162 6.1034C9.32439 4.26989 8.77973 2.65198 8.60432 2.21345C8.39299 1.68513 8.1959 1.3536 8.02448 1.16075C7.85774 0.973173 7.08902 0.879063 7.03418 0.879063L7.69362 0.0718536C8.07841 0.0718536 8.40875 0.269604 8.68165 0.576606Z" fill="black"/>
</svg>
