<svg width="18" height="14" viewBox="0 0 18 14" fill="none" xmlns="http://www.w3.org/2000/svg">
<path d="M3.3748 13.8265C5.23865 13.8265 6.7496 12.3156 6.7496 10.4517C6.7496 8.58788 5.23865 7.07693 3.3748 7.07693C1.51095 7.07693 0 8.58788 0 10.4517C0 12.3156 1.51095 13.8265 3.3748 13.8265Z" fill="white"/>
<path fill-rule="evenodd" clip-rule="evenodd" d="M3.3748 8.07481C2.06206 8.07481 0.99787 9.13899 0.99787 10.4517C0.99787 11.7645 2.06206 12.8287 3.3748 12.8287C4.68754 12.8287 5.75173 11.7645 5.75173 10.4517C5.75173 9.13899 4.68754 8.07481 3.3748 8.07481ZM0 10.4517C0 8.58788 1.51095 7.07693 3.3748 7.07693C5.23865 7.07693 6.7496 8.58788 6.7496 10.4517C6.7496 12.3156 5.23865 13.8265 3.3748 13.8265C1.51095 13.8265 0 12.3156 0 10.4517Z" fill="#2E2E2D"/>
<path d="M14.6253 13.8265C16.4891 13.8265 18.0001 12.3156 18.0001 10.4517C18.0001 8.58788 16.4891 7.07693 14.6253 7.07693C12.7614 7.07693 11.2505 8.58788 11.2505 10.4517C11.2505 12.3156 12.7614 13.8265 14.6253 13.8265Z" fill="white"/>
<path fill-rule="evenodd" clip-rule="evenodd" d="M14.6253 8.07481C13.3125 8.07481 12.2484 9.13899 12.2484 10.4517C12.2484 11.7645 13.3125 12.8287 14.6253 12.8287C15.938 12.8287 17.0022 11.7645 17.0022 10.4517C17.0022 9.13899 15.938 8.07481 14.6253 8.07481ZM11.2505 10.4517C11.2505 8.58788 12.7614 7.07693 14.6253 7.07693C16.4891 7.07693 18.0001 8.58788 18.0001 10.4517C18.0001 12.3156 16.4891 13.8265 14.6253 13.8265C12.7614 13.8265 11.2505 12.3156 11.2505 10.4517Z" fill="#2E2E2D"/>
<path d="M10.1886 9.26417H7.8436C7.71082 8.20233 7.25768 7.20624 6.54462 6.40832C5.83156 5.61041 4.89241 5.04859 3.85212 4.79775C3.85212 4.79775 0.37155 3.35876 2.57884 3.37074C4.78613 3.38271 8.3146 4.13521 8.73769 5.39852C9.16079 6.66182 10.5159 4.61219 11.402 4.29686C12.2881 3.98153 8.73769 0.401123 8.73769 0.401123C8.73769 0.401123 13.9725 4.27287 13.2899 5.07316C10.6995 6.40232 10.3043 7.58176 10.1886 9.26417Z" fill="white"/>
<path fill-rule="evenodd" clip-rule="evenodd" d="M9.0343 1.17349e-06L8.73761 0.401139C9.0343 1.15982e-06 9.03422 -5.17022e-05 9.0343 1.17349e-06L9.0386 0.00319028L9.05033 0.011905L9.09507 0.0452782C9.134 0.0744001 9.19072 0.116998 9.2625 0.171373C9.40601 0.280101 9.60989 0.436041 9.85225 0.625592C10.3363 1.00416 10.9769 1.51917 11.5978 2.06118C12.2142 2.59931 12.8292 3.17955 13.2504 3.68684C13.4578 3.9367 13.6428 4.19769 13.7491 4.44692C13.8448 4.67114 13.9493 5.06884 13.6695 5.39694L13.6054 5.47203L13.5176 5.51709C12.2609 6.1619 11.5997 6.7394 11.2293 7.30844C10.8622 7.87227 10.7422 8.48474 10.6862 9.29843L10.6543 9.76312H7.40309L7.34844 9.3261C7.22823 8.36488 6.81803 7.46315 6.17251 6.7408C5.52698 6.01846 4.6768 5.50987 3.73508 5.2828L3.50953 5.22841L3.48772 5.18478C3.39585 5.14486 3.27296 5.09045 3.13356 5.0261C2.83657 4.889 2.45084 4.70045 2.13006 4.50706C1.97132 4.41136 1.81188 4.30465 1.68399 4.19329C1.62008 4.13765 1.55199 4.07052 1.49458 3.99274C1.44065 3.91969 1.36945 3.80162 1.35109 3.64781C1.32968 3.46854 1.38684 3.29324 1.50967 3.15993C1.61533 3.04525 1.74548 2.98705 1.84375 2.9547C2.03962 2.89024 2.29355 2.87026 2.58146 2.87183C3.72979 2.87806 5.20918 3.07543 6.46489 3.43582C7.09228 3.61588 7.68516 3.84262 8.15904 4.11971C8.61699 4.38749 9.04669 4.75032 9.21071 5.24008C9.21643 5.25714 9.22188 5.27172 9.22694 5.2841C9.24539 5.27589 9.26684 5.26526 9.29142 5.25166C9.3741 5.20593 9.47255 5.13778 9.58828 5.04705C9.73569 4.93148 9.87481 4.8097 10.0245 4.67867C10.1263 4.58955 10.233 4.49616 10.3505 4.39752C10.5395 4.23889 10.7614 4.06272 10.9931 3.93652C10.9745 3.89509 10.9509 3.84789 10.9219 3.79491C10.7381 3.45947 10.4036 3.0131 10.0184 2.5497C9.63861 2.09287 9.22978 1.64335 8.91436 1.30658C8.75701 1.13858 8.62369 0.99948 8.52992 0.902592C8.48304 0.854163 8.44609 0.816321 8.421 0.790734L8.39253 0.761765L8.38542 0.754573L8.38374 0.752869C8.38352 0.753084 8.38374 0.752869 8.38374 0.752869L9.0343 1.17349e-06ZM4.00877 4.32247C5.13178 4.60171 6.14506 5.21257 6.91656 6.07588C7.59849 6.83896 8.06328 7.76764 8.2668 8.76525H9.73214C9.81138 8.0676 9.97733 7.40246 10.393 6.76399C10.8625 6.0429 11.617 5.4059 12.7975 4.7685C12.738 4.6571 12.6354 4.50825 12.4826 4.32425C12.3469 4.16079 12.1844 3.98458 12.003 3.80071C12.02 3.86414 12.0324 3.92797 12.0385 3.99134C12.0503 4.11414 12.0423 4.27452 11.9606 4.43157C11.8724 4.60087 11.7276 4.71057 11.5692 4.76694C11.4428 4.81189 11.2546 4.94152 10.992 5.16186C10.9093 5.2313 10.8158 5.31291 10.7179 5.39827C10.5482 5.54631 10.3656 5.70565 10.204 5.83234C10.0685 5.93856 9.92296 6.0427 9.77437 6.12488C9.62965 6.20491 9.45178 6.28132 9.25593 6.3003C9.04341 6.32091 8.81741 6.27194 8.62309 6.11447C8.44318 5.96868 8.3342 5.76508 8.2645 5.55698C8.21698 5.41509 8.04696 5.21012 7.65534 4.98112C7.27966 4.76145 6.77314 4.56244 6.18961 4.39497C5.19569 4.10971 4.04022 3.93329 3.06494 3.88385C3.23085 3.96898 3.39975 4.04991 3.55181 4.12012C3.69337 4.18547 3.81697 4.23998 3.90496 4.27806L4.00877 4.32247ZM2.15203 3.90392C2.15198 3.90389 2.15298 3.90347 2.15516 3.90274L2.15203 3.90392Z" fill="#2E2E2D"/>
</svg>
