<svg width="16" height="25" viewBox="0 0 16 25" fill="none" xmlns="http://www.w3.org/2000/svg">
<path d="M10.6853 12.8495C10.4651 12.7098 10.3693 12.2229 9.96913 12.5962C9.91635 12.6078 9.86725 12.6322 9.82618 12.6674C9.78511 12.7025 9.75335 12.7472 9.7337 12.7976L9.71132 12.8155L9.64508 12.8817L9.62717 12.9041C9.44833 13.0102 9.29687 13.1567 9.18495 13.332L9.17421 13.3392L9.09007 13.4179L9.0847 13.4242C8.85374 13.5844 8.58966 13.7268 8.5834 14.0553C8.55923 15.3622 8.49388 16.6692 8.55117 17.9762C8.55117 18.9597 8.54908 19.9443 8.5449 20.9302C8.5449 21.2794 8.36587 21.6509 8.81346 21.9149C9.28253 22.1915 9.35056 22.7743 9.01129 23.1852C8.93521 23.2788 8.84049 23.3555 8.73315 23.4105C8.62581 23.4655 8.5082 23.4975 8.3878 23.5046C8.2674 23.5117 8.14684 23.4936 8.0338 23.4516C7.92076 23.4095 7.8177 23.3444 7.73119 23.2604C7.6391 23.1782 7.56669 23.0763 7.51936 22.9624C7.47202 22.8484 7.45097 22.7252 7.45776 22.602C7.46456 22.4787 7.49902 22.3586 7.5586 22.2505C7.61818 22.1424 7.70134 22.0491 7.80191 21.9776C8.13581 21.7422 8.18773 21.4664 8.18146 21.1057C8.14655 18.874 8.12775 16.6361 8.08926 14.4071C8.083 14.0625 8.13939 13.767 8.3793 13.5173C8.85374 13.1395 9.23688 12.6731 9.64687 12.2327C9.77398 12.0975 9.81606 11.9731 9.65134 11.8227C9.42486 11.615 9.21539 11.3886 8.99876 11.1701C8.94656 11.0479 8.85087 10.9493 8.73021 10.8935V10.8998C8.69888 10.8667 8.66755 10.8327 8.63532 10.7995L8.64516 10.8076L8.54849 10.7064L8.55386 10.7109C8.46434 10.5525 8.35155 10.3869 8.16446 10.3887C7.41878 10.3967 6.67041 10.3072 5.92652 10.437H5.91936C5.70272 10.5489 5.79135 10.753 5.79135 10.9159C5.78329 12.6901 5.79135 14.4635 5.77881 16.2377C5.77881 16.5752 5.83073 16.8017 6.16463 16.9959C6.40324 17.1417 6.57666 17.3737 6.64898 17.6438C6.7213 17.9139 6.68698 18.2015 6.55314 18.447C6.29891 18.9107 5.64991 19.1444 5.16114 18.9277C4.98064 18.8524 4.82413 18.7292 4.70849 18.5715C4.59286 18.4137 4.52249 18.2274 4.50498 18.0326C4.43874 17.5375 4.68402 17.1991 5.0582 16.9422C5.22291 16.8294 5.37867 16.7578 5.37778 16.5134C5.36823 14.5906 5.36524 12.6678 5.36882 10.7449C5.36882 10.4764 5.25872 10.3699 4.99464 10.3743C4.44321 10.3851 3.89089 10.3967 3.34036 10.3743C3.02526 10.3636 2.79699 10.3824 2.60542 10.7091C2.35119 11.1424 1.65474 11.2301 1.29757 10.9455C0.92249 10.6474 0.832076 10.0261 1.11048 9.66893C1.50972 9.15689 1.95821 9.10139 2.44876 9.51138C2.58483 9.62507 2.69852 9.76651 2.83011 9.88735C2.84186 9.90192 2.85645 9.91395 2.87298 9.92273C2.88951 9.93151 2.90764 9.93686 2.92629 9.93845C2.94494 9.94004 2.96372 9.93784 2.98149 9.93198C2.99927 9.92612 3.01568 9.91673 3.02973 9.90436C3.08076 9.85602 3.04763 9.79873 3.02973 9.74144C2.8507 9.16316 2.03967 8.78539 1.4408 9.00382C0.794479 9.24014 0.439095 9.99925 0.691534 10.6035C1.09436 11.5685 2.1829 11.6661 2.92947 10.7986C3.08792 10.6133 3.29291 10.4048 3.51134 10.5095C3.76557 10.6312 3.50328 10.8774 3.50686 11.0708L3.51313 11.0609L3.43435 11.1755C2.54544 12.1924 1.46497 12.3285 0.599331 11.5336C0.243334 11.2097 0.0290371 10.7588 0.00274 10.2783C-0.0235571 9.7977 0.140256 9.3261 0.458788 8.96532C1.08093 8.24918 2.25451 8.14713 3.00467 8.73974C3.12104 8.82926 3.22846 8.93489 3.33946 9.03246C3.44062 9.25447 3.59727 9.4532 3.59369 9.71727C3.59369 9.90168 3.69216 9.98582 3.87925 9.92943H5.04298H5.31153C5.4876 9.97554 5.67257 9.97554 5.84864 9.92943H7.90754C8.19758 9.96255 8.17072 9.75039 8.17162 9.57583C8.17609 8.66723 8.17162 7.75773 8.17162 6.84913C8.17162 6.67009 8.16088 6.48569 7.94514 6.41228C7.52351 6.26995 7.31852 5.95127 7.11084 5.56634C6.84228 5.08026 7.04549 4.30594 7.50919 3.9783C8.02302 3.61397 8.77049 3.62023 9.21002 4.01322C9.74712 4.49661 10.0533 5.57261 9.03098 6.20013C8.70962 6.39707 8.55565 6.61638 8.57087 7.01742C8.60852 7.71706 8.59236 8.41855 8.52253 9.11571C8.41869 10.001 8.8806 10.5364 9.50722 11.0144C9.67462 11.2122 9.83664 11.4136 10.0112 11.6052C10.141 11.7475 10.261 11.7296 10.3451 11.5488C10.8509 11.1012 11.3567 10.6456 11.7568 10.0915C11.8463 10.01 11.8212 9.89989 11.8212 9.79963C11.8212 7.31194 11.8212 4.82424 11.8212 2.33655C11.8199 2.11389 11.7327 1.90033 11.5778 1.74037C11.3146 1.43064 11.3352 1.05645 11.6091 0.823706C11.8624 0.607969 12.139 0.559629 12.421 0.781633C12.4906 0.832226 12.5486 0.89713 12.5911 0.971987C12.6336 1.04684 12.6596 1.12992 12.6673 1.21564C12.675 1.30137 12.6643 1.38775 12.6358 1.46898C12.6074 1.55022 12.5619 1.62444 12.5025 1.68665C12.2491 1.97938 12.2339 2.29 12.2339 2.63733C12.2339 5.1844 12.2274 7.73147 12.2142 10.2785L12.1175 10.3904L12.0531 10.4594L11.9385 10.5695L11.8624 10.6393C11.4829 10.9875 11.1051 11.3375 10.7238 11.684C10.491 11.8943 10.4731 12.0814 10.7479 12.2802C10.9076 12.4101 11.0598 12.5491 11.2036 12.6964L11.3056 12.8003H11.3003C11.3501 12.9237 11.4466 13.0224 11.5688 13.0751V13.0688L11.6682 13.1646L11.6583 13.1574L11.7577 13.255L11.7505 13.2461L11.8454 13.3454H11.84C12.1384 13.6766 12.4368 14.0075 12.7352 14.3382C12.9626 14.5915 13.1891 14.7428 13.5847 14.6425C14.0914 14.5145 14.5292 14.7553 14.7556 15.1796C14.8525 15.3407 14.8978 15.5276 14.8853 15.7152C14.8728 15.9027 14.8032 16.082 14.6858 16.2288C14.3349 16.7023 13.9079 16.8303 13.3959 16.6092C12.8838 16.3881 12.6672 15.9352 12.7934 15.3631C12.8426 15.1429 12.9205 14.9442 12.7084 14.7499C12.0952 14.1896 11.4936 13.6149 10.8876 13.0491V13.0545L10.7891 12.9587L10.799 12.9659L10.6853 12.8495Z" fill="#DC751A"/>
<path d="M6.65712 7.24661C5.39134 6.12406 5.44058 4.63359 5.94993 3.73036C6.68218 2.42967 7.91215 2.10025 9.33638 2.52366C10.5413 2.88173 11.2395 4.2245 11.0256 5.57263C10.8967 6.38276 10.3855 6.92345 9.78844 7.41132C9.62373 7.47667 9.45365 7.53306 9.29431 7.60915C8.96667 7.7667 8.85657 7.63959 8.7948 7.30837C8.70528 6.82229 9.10542 6.75247 9.36592 6.56985C10.0498 6.09183 10.3282 5.34436 10.1053 4.53244C9.90571 3.81003 9.21016 3.27293 8.41256 3.22996C7.61496 3.18699 6.91045 3.6668 6.61236 4.44023C6.34381 5.12952 6.57118 5.95666 7.17274 6.45706C7.33208 6.58865 7.52186 6.68354 7.68568 6.81513C7.94438 7.01565 7.91305 7.29495 7.81816 7.55007C7.71701 7.81862 7.48963 7.64406 7.31418 7.63959L6.65712 7.24661Z" fill="#DC751A"/>
<path d="M12.668 13.6883C13.2051 13.4376 13.7717 13.4716 14.3348 13.5164C15.0035 13.5701 15.7796 14.2898 15.9282 15.031C16.1072 15.9119 15.9774 16.7426 15.2335 17.3433C14.5085 17.9287 13.6858 17.9699 12.8336 17.6396C12.3135 17.4355 12.0387 16.9879 11.7665 16.5412C11.5525 15.9786 11.5579 15.3561 11.7817 14.7974C11.8265 14.6792 11.8507 14.5109 12.0172 14.5073C12.164 14.5073 12.2383 14.6416 12.3251 14.7419C12.4388 14.8717 12.4048 15.0104 12.3717 15.1626C12.2902 15.5296 12.2553 15.8993 12.4084 16.2574C12.5497 16.5724 12.7926 16.8309 13.0982 16.9915C13.4038 17.1522 13.7544 17.2057 14.094 17.1436C14.4267 17.0844 14.729 16.9128 14.9504 16.6575C15.1718 16.4022 15.299 16.0786 15.3105 15.7409C15.3356 14.9728 14.8862 14.3713 14.1737 14.1815C13.872 14.1009 13.5846 14.1672 13.2892 14.1905C12.8694 14.2245 12.6474 14.0347 12.668 13.6883Z" fill="#DC751A"/>
<path d="M7.80985 17.6342C7.80496 17.6467 7.8037 17.6603 7.80624 17.6735C7.80877 17.6866 7.81499 17.6988 7.82417 17.7085L7.83581 17.9771C7.82954 18.0371 7.82238 18.097 7.81612 18.1561C7.77434 18.328 7.73286 18.4999 7.69169 18.6717L7.69885 18.6619C7.68273 18.7022 7.66752 18.7416 7.6514 18.7809C7.09998 19.9769 5.74289 20.3296 4.89606 20.0046C4.0904 19.6967 3.58104 19.122 3.43781 18.2868C3.28832 17.4122 3.58104 16.663 4.31419 16.1384C4.57737 15.9495 4.81817 15.6523 5.21563 15.7624C5.28367 16.1608 5.17177 16.432 4.80922 16.6898C4.12979 17.1732 3.97313 17.9538 4.32493 18.6162C4.45834 18.8758 4.66863 19.0878 4.92706 19.2234C5.1855 19.3589 5.47948 19.4114 5.76885 19.3735C6.31401 19.3163 6.90393 18.832 7.04627 18.3244C7.21098 17.7345 6.9478 17.0595 6.38652 16.6531C6.13587 16.4741 5.84942 16.2673 6.04815 15.937C6.22718 15.638 6.49573 15.9271 6.724 15.962L6.71147 15.9504L6.83053 16.022L7.45715 16.6415L7.52071 16.7623L7.50818 16.7498L7.64156 16.9942C7.69706 17.2072 7.75345 17.4203 7.80985 17.6342Z" fill="#DC751A"/>
<path d="M8.73144 20.9329C9.23273 20.8702 9.81101 21.3241 10.0554 21.9731C10.4251 22.9524 10.0097 23.9362 9.05728 24.3381C8.61329 24.5237 8.1145 24.5292 7.66655 24.3534C7.21859 24.1776 6.85663 23.8344 6.65731 23.3964C6.19451 22.392 6.74683 21.1889 7.82104 20.8568C8.13525 21.1656 7.92578 21.3348 7.6617 21.513C7.41467 21.6808 7.22877 21.9242 7.13191 22.2067C7.03506 22.4892 7.03249 22.7955 7.12459 23.0795C7.30363 23.6319 7.72884 23.9246 8.34651 23.9192C8.94628 23.9138 9.40461 23.5934 9.56663 23.0652C9.7573 22.4466 9.56126 21.8702 9.00983 21.5157C8.78514 21.3697 8.65803 21.2086 8.73144 20.9329Z" fill="#DC751A"/>
<path d="M11.2159 2.3464C10.9303 2.04741 10.7218 1.70635 10.7173 1.28204C10.7195 1.01138 10.8079 0.74847 10.9697 0.531477C11.1314 0.314483 11.3582 0.154704 11.6169 0.075341C12.2203 -0.111751 12.7699 0.0547522 13.0823 0.517558C13.2447 0.752671 13.3267 1.03393 13.3162 1.31944C13.3057 1.60496 13.2033 1.87944 13.0242 2.10202C12.8827 2.27389 12.735 2.44397 12.5032 2.50395L12.4065 2.38221V2.37684C12.4351 2.10828 12.6356 1.93641 12.7592 1.72157C12.983 1.33038 12.9302 0.998267 12.5963 0.688536C12.4589 0.551021 12.2773 0.466586 12.0836 0.4502C11.8899 0.433815 11.6967 0.486536 11.5382 0.599018C11.1604 0.878313 11.0548 1.24086 11.2499 1.64548C11.3197 1.7905 11.429 1.91403 11.514 2.05368C11.599 2.19333 11.6832 2.34193 11.5552 2.45919C11.4272 2.57646 11.3412 2.36251 11.2159 2.3464Z" fill="#DC751A"/>
<path d="M10.6855 12.8495L10.7948 12.9569L10.6855 12.8495Z" fill="#DC751A"/>
<path d="M10.7817 12.9498L10.8802 13.0456L10.7817 12.9498Z" fill="#DC751A"/>
<path d="M11.6594 13.1619L11.5601 13.0662L11.6594 13.1619Z" fill="#DC751A"/>
<path d="M9.63965 12.8817L9.70589 12.8155L9.63965 12.8817Z" fill="#DC751A"/>
<path d="M11.8366 13.3428L11.7417 13.2434L11.8366 13.3428Z" fill="#DC751A"/>
<path d="M9.08496 13.4179L9.16911 13.3391L9.08496 13.4179Z" fill="#DC751A"/>
<path d="M3.43408 11.1755L3.50749 11.0654L3.43408 11.1755Z" fill="#DC751A"/>
<path d="M12.4067 2.38043L12.5034 2.50218L12.4067 2.38043Z" fill="#DC751A"/>
<path d="M8.63623 10.7996C8.66846 10.8327 8.69979 10.8667 8.73112 10.8998C8.69979 10.8667 8.66846 10.8327 8.63623 10.7996Z" fill="#DC751A"/>
<path d="M6.83048 16.0184L6.71143 15.9468L6.83048 16.0184Z" fill="#DC751A"/>
<path d="M8.54932 10.7065L8.64599 10.8076L8.54932 10.7065Z" fill="#DC751A"/>
<path d="M7.52197 16.7596L7.46289 16.6361L7.52197 16.7596Z" fill="#DC751A"/>
<path d="M11.8608 10.6384L11.9369 10.5686L11.8608 10.6384Z" fill="#DC751A"/>
<path d="M7.65137 18.7845C7.66748 18.7451 7.6827 18.7057 7.69881 18.6654C7.6827 18.7021 7.66748 18.7415 7.65137 18.7845Z" fill="#DC751A"/>
<path d="M12.0513 10.4593L12.1157 10.3904L12.0513 10.4593Z" fill="#DC751A"/>
<path d="M11.7488 13.2523L11.6494 13.1547L11.7488 13.2523Z" fill="#DC751A"/>
</svg>
