<svg width="11" height="15" viewBox="0 0 11 15" fill="none" xmlns="http://www.w3.org/2000/svg">
<circle cx="5.5" cy="7.5" r="5.5" fill="#E9852A"/>
<path d="M4.43164 2C4.75985 2.10299 5.08564 2.22156 5.38937 2.3851C5.69657 2.55052 5.96792 2.77678 6.26338 2.96108C6.62779 3.18839 6.95155 3.46667 7.27385 3.75053C7.66825 4.0979 7.95676 4.55177 8.178 5.02555C8.32105 5.33191 8.43104 5.65578 8.55807 5.96905C8.73551 6.40661 8.77263 6.86361 8.79667 7.3328C8.81315 7.65446 8.78331 7.97807 8.74393 8.29723C8.66762 8.9156 8.55402 9.54668 8.35799 10.139C8.19075 10.6443 7.8821 11.1023 7.57774 11.5346C7.34826 11.8605 7.09497 12.1842 6.81424 12.468C6.62466 12.6597 6.43606 12.8462 6.26673 13.0566C6.18932 13.1527 6.11572 13.2452 6.02897 13.332" stroke="white" stroke-opacity="0.1" stroke-width="3" stroke-linecap="round"/>
<path d="M3 2.34656C3.39124 2.47863 3.76864 2.64009 4.16116 2.76431C4.42013 2.84626 4.69834 2.91803 4.93806 3.04811C5.21024 3.19581 5.45193 3.40913 5.7091 3.58223C5.9799 3.7645 6.2479 3.94764 6.50441 4.14983C6.78423 4.37039 7.01966 4.64471 7.29554 4.87231C7.65813 5.17145 7.73829 5.64339 7.78529 6.08371C7.80005 6.22199 7.81896 6.35643 7.84557 6.49225C7.87661 6.65072 7.87946 6.81498 7.90752 6.97446C7.93614 7.13716 7.98655 7.29397 8.01803 7.45583C8.07216 7.73424 8.06282 8.01757 8.05486 8.29971C8.04765 8.55505 8.01653 8.76445 7.9318 9.00545C7.83858 9.27056 7.70832 9.5173 7.61283 9.78067C7.5292 10.0113 7.48415 10.2615 7.37507 10.4822C7.29993 10.6343 7.20762 10.7777 7.1122 10.9176C6.85533 11.294 6.59643 11.6565 6.29261 11.9967C6.01415 12.3085 5.69708 12.5131 5.33069 12.7074C5.16823 12.7936 5.03542 12.9246 4.86857 13.0004" stroke="white" stroke-opacity="0.1" stroke-width="0.5" stroke-linecap="round"/>
<path d="M5.41798 4.38232C5.24793 4.89805 5.06859 5.40368 4.79884 5.87693C4.72434 6.00763 4.63789 6.13375 4.57617 6.27122C4.43913 6.57646 4.34374 6.89386 4.19275 7.1934C4.14852 7.28113 3.83396 7.86789 3.90491 7.89942C3.95763 7.92286 4.06578 7.90241 4.12106 7.9016C4.40059 7.89749 4.67997 7.85781 4.95526 7.81253C5.22828 7.76762 5.55859 7.75763 5.81226 7.63656C5.88764 7.60059 5.96902 7.55392 6.05014 7.53229C6.11516 7.51495 5.84499 8.0702 5.83073 8.09494C5.70708 8.30941 5.55162 8.52225 5.45925 8.75317C5.2812 9.1983 5.07032 9.63037 4.84012 10.0512C4.66672 10.3681 4.51344 10.6931 4.34264 11.0103" stroke="white" stroke-opacity="0.1" stroke-width="0.5" stroke-linecap="round"/>
<path d="M5.45731 4.28455C5.30482 4.91142 5.19021 5.5781 4.94571 6.17887C4.89365 6.30678 4.81754 6.42197 4.74259 6.53731C4.54447 6.84222 4.33171 7.13445 4.14844 7.44863C4.10858 7.51696 4.05387 7.58105 4.01484 7.64741C3.97996 7.7067 4.15334 7.65645 4.22122 7.64523C4.54889 7.59107 4.86848 7.54965 5.20096 7.54965C5.54754 7.54965 5.89308 7.54975 6.23937 7.53444C6.34737 7.52967 6.394 7.51179 6.34364 7.63003C6.24038 7.87246 6.05435 8.08352 5.90916 8.30129C5.61476 8.7429 5.34637 9.19357 5.088 9.65687C4.84332 10.0956 4.58269 10.5245 4.32549 10.956C4.28471 11.0244 4.21146 11.2087 4.1278 11.2644" stroke="white" stroke-opacity="0.1" stroke-width="0.5" stroke-linecap="round"/>
<path d="M5.65248 4.06958C5.38329 4.95932 5.14917 5.87275 4.76614 6.72207C4.60447 7.08056 4.42698 7.43058 4.26867 7.79088C4.25354 7.8253 4.20533 7.87398 4.27084 7.84954C4.45365 7.78133 4.63012 7.69999 4.81611 7.63882C4.97416 7.58684 5.1095 7.58885 5.27448 7.58885C5.55736 7.58885 5.83392 7.59149 6.1152 7.61927C6.12856 7.62058 6.43656 7.6181 6.41064 7.66706C6.38269 7.71986 6.29679 7.76526 6.2564 7.81044C6.07175 8.01696 5.91628 8.25107 5.75458 8.47519C5.21716 9.22007 4.58133 9.88896 4.10791 10.678" stroke="white" stroke-opacity="0.1" stroke-width="0.5" stroke-linecap="round"/>
<path d="M5.73104 4.26501C5.55656 4.81914 5.41489 5.39561 5.20532 5.93775C4.99723 6.47608 4.66929 6.96575 4.3657 7.453C4.27944 7.59143 4.10402 7.7999 4.09089 7.97328C4.08304 8.07694 4.75483 7.96815 4.82733 7.95591C5.17847 7.89662 5.50563 7.80798 5.86356 7.78537C6.00799 7.77625 6.15473 7.77418 6.29804 7.7517C6.33678 7.74562 6.50101 7.68421 6.44793 7.77994C6.38481 7.89378 6.29999 8.0104 6.22743 8.11558C5.78408 8.7582 5.32325 9.38947 4.861 10.0186C4.69624 10.2428 4.50589 10.4584 4.36244 10.6975" stroke="white" stroke-opacity="0.1" stroke-width="0.5" stroke-linecap="round"/>
<path d="M5.67203 4.14771C5.29606 5.0304 4.89449 5.90288 4.52283 6.78716C4.43901 6.98659 4.37849 7.19563 4.29473 7.39543C4.24655 7.51035 4.09296 7.72788 4.10573 7.85815C4.10904 7.89191 4.19957 7.87494 4.21001 7.87335C4.50518 7.82838 4.79557 7.77435 5.09417 7.75496C5.31458 7.74065 5.53519 7.72924 5.75566 7.71586C5.91622 7.70611 6.10939 7.71486 6.26943 7.67675C6.36284 7.65451 6.18436 7.85029 6.12605 7.92658C5.92676 8.18733 5.7498 8.45684 5.57318 8.73362C5.33271 9.11045 5.12084 9.49366 4.89757 9.87956C4.73618 10.1585 4.5832 10.465 4.38163 10.717" stroke="white" stroke-opacity="0.1" stroke-width="0.5" stroke-linecap="round"/>
<path d="M4.9292 3.11145C4.97873 3.88013 5.03412 4.64584 5.10951 5.41201C5.17205 6.04757 5.23702 6.67855 5.2518 7.3172C5.27059 8.129 5.20601 8.93691 5.26266 9.7481C5.29746 10.2463 5.37661 10.7453 5.37888 11.2449C5.37956 11.3939 5.36744 11.5479 5.37888 11.6967C5.39261 11.8751 5.38982 11.339 5.39409 11.1602C5.40332 10.7737 5.41581 10.3867 5.41581 10.0001C5.41581 9.04988 5.36724 8.10184 5.27244 7.15644C5.16814 6.11639 5.19582 5.06947 5.09647 4.02928C5.08251 3.88312 5.06606 3.73539 5.06606 3.58829C5.06606 3.5481 5.06606 3.66867 5.06606 3.70886C5.06606 4.86262 5.03348 6.02038 5.12037 7.17165C5.19681 8.18451 5.30627 9.197 5.36802 10.2108C5.39131 10.5931 5.39305 10.9791 5.43537 11.36C5.43763 11.3804 5.4638 11.5818 5.47881 11.6207C5.52041 11.7286 5.49611 11.3898 5.49511 11.2742C5.47611 9.0801 5.37448 6.8852 5.15513 4.70164C5.11057 4.25805 5.04651 3.81188 5.04651 3.36562" stroke="white" stroke-opacity="0.1" stroke-width="0.5" stroke-linecap="round"/>
<path d="M5.08558 3.20931C5.1571 4.86587 5.161 6.52299 5.22352 8.17974C5.24722 8.80765 5.32804 9.44224 5.3115 10.0708C5.29532 10.6858 5.15619 12.5262 5.21809 11.9141C5.28031 11.2988 5.2237 10.657 5.20723 10.0415C5.17642 8.89006 5.08931 7.7424 4.95849 6.59824C4.90193 6.10355 4.83565 5.61294 4.82489 5.1145C4.81514 4.66282 4.82045 4.20841 4.83249 3.75675C4.83821 3.54242 4.90166 3.33948 4.94871 3.1311" stroke="white" stroke-opacity="0.1" stroke-width="0.5" stroke-linecap="round"/>
<path d="M4.94873 3.24841C5.04446 4.82648 5.14425 6.39565 5.14425 7.97553C5.14425 8.9996 5.0844 10.0224 5.08125 11.0462C5.08052 11.2825 5.10514 11.5173 5.10514 11.7533" stroke="white" stroke-opacity="0.1" stroke-width="0.5" stroke-linecap="round"/>
<path d="M4.96826 3.48303C5.10575 5.12745 5.26112 6.7728 5.28543 8.42305C5.30093 9.47505 5.33233 10.5257 5.35929 11.5774" stroke="white" stroke-opacity="0.1" stroke-width="0.5" stroke-linecap="round"/>
<path d="M4.06885 7.41281C4.52648 6.47711 5.03645 5.59506 5.69162 4.78639C5.72978 4.73929 5.78183 4.67277 5.82414 4.62563C5.87328 4.57087 5.98815 4.40433 5.98815 4.47791C5.98815 4.59662 5.89165 4.6951 5.835 4.79942C5.66816 5.10668 5.48398 5.40343 5.30059 5.70096C4.95711 6.25823 4.60348 6.80888 4.29152 7.38456C4.23809 7.48316 4.20917 7.60529 4.12099 7.67458C4.10873 7.68421 4.11858 7.64277 4.12316 7.62787C4.15039 7.53925 4.24748 7.3099 4.28174 7.23684C4.39636 6.99239 4.66466 6.47804 4.75967 6.29402C5.14374 5.55015 5.5173 4.7988 5.92081 4.06515C6.01247 3.89851 6.08731 3.79866 6.21951 3.67847" stroke="white" stroke-opacity="0.1" stroke-width="0.5" stroke-linecap="round"/>
<path d="M6.04365 4.0304C5.49812 4.90601 4.9125 5.76239 4.45346 6.68723C4.29693 7.0026 4.13395 7.31591 3.97119 7.62787" stroke="white" stroke-opacity="0.1" stroke-width="0.5" stroke-linecap="round"/>
<path d="M6.00457 3.93262C5.56581 4.89026 5.12217 5.87286 4.49259 6.72414C4.28519 7.00456 4.1257 7.30995 3.95166 7.6083" stroke="white" stroke-opacity="0.1" stroke-width="0.5" stroke-linecap="round"/>
<path d="M6.1611 3.75671C5.80558 4.46182 5.45232 5.16505 5.01625 5.82483C4.8586 6.06336 4.68334 6.28922 4.52095 6.52434C4.26535 6.89441 4.02608 7.2794 3.83447 7.68657" stroke="white" stroke-opacity="0.1" stroke-width="0.5" stroke-linecap="round"/>
<path d="M3.59961 7.86255C4.60753 7.92238 5.66249 8.05079 6.6692 7.90165" stroke="white" stroke-opacity="0.1" stroke-width="0.5" stroke-linecap="round"/>
<path d="M4.30371 7.82347C5.29478 7.74711 6.29047 7.73801 7.27554 7.6084" stroke="white" stroke-opacity="0.1" stroke-width="0.5" stroke-linecap="round"/>
<path d="M4.16699 7.96029C4.73465 7.90479 5.30142 7.84952 5.87123 7.82125C6.11173 7.80932 6.35901 7.79389 6.60007 7.81365C6.78794 7.82905 6.97304 7.79257 7.15837 7.76477" stroke="white" stroke-opacity="0.1" stroke-width="0.5" stroke-linecap="round"/>
<path d="M4.06885 7.84299C4.74964 7.83056 5.42686 7.85944 6.10329 7.93749C6.18016 7.94636 6.25956 7.94074 6.33682 7.94074" stroke="white" stroke-opacity="0.1" stroke-width="0.5" stroke-linecap="round"/>
<path d="M6.63028 7.54968C5.86795 8.61694 5.15818 9.71326 4.3623 10.7561" stroke="white" stroke-opacity="0.1" stroke-width="0.5" stroke-linecap="round"/>
<path d="M6.47383 7.80383C5.62301 8.96769 4.7308 10.1056 3.93213 11.3036" stroke="white" stroke-opacity="0.1" stroke-width="0.5" stroke-linecap="round"/>
<path d="M6.18049 8.05798C5.47374 9.07382 4.7559 10.0818 4.02113 11.0776C3.99643 11.1111 3.65668 11.5746 3.53669 11.7098C3.53193 11.7151 3.52851 11.6932 3.52148 11.6946" stroke="white" stroke-opacity="0.1" stroke-width="0.5" stroke-linecap="round"/>
<path d="M6.14169 7.99939C5.46419 8.86077 4.74912 9.70744 4.16699 10.6388" stroke="white" stroke-opacity="0.1" stroke-width="0.5" stroke-linecap="round"/>
<path d="M5.02684 3.32654C4.91625 4.28751 4.82546 5.24097 4.83132 6.2093C4.83358 6.58271 4.84945 6.95814 4.86391 7.33134C4.92149 8.81802 4.90285 10.3068 4.98774 11.7923" stroke="white" stroke-opacity="0.1" stroke-width="0.5" stroke-linecap="round"/>
<path d="M5.12459 3.56116C5.13362 5.77238 5.25261 7.99352 5.11482 10.2022C5.08512 10.6782 5.04639 11.1408 5.04639 11.6164" stroke="white" stroke-opacity="0.1" stroke-width="0.5" stroke-linecap="round"/>
</svg>
