<svg width="22" height="21" viewBox="0 0 22 21" fill="none" xmlns="http://www.w3.org/2000/svg">
<path fill-rule="evenodd" clip-rule="evenodd" d="M19.6995 12.7859C20.1752 10.9025 20.0524 8.91766 19.3479 7.10732L20.4352 6.68427C21.2275 8.72056 21.3657 10.9531 20.8306 13.0716C20.2955 15.1901 19.1136 17.0892 17.4493 18.5049L16.6934 17.6163C18.173 16.3577 19.2237 14.6693 19.6995 12.7859Z" fill="#666766"/>
<path fill-rule="evenodd" clip-rule="evenodd" d="M11.068 1.17589C9.64707 1.11263 8.23051 1.37488 6.92644 1.94262C5.62236 2.51036 4.46526 3.36857 3.54346 4.45173C2.62167 5.53489 1.95957 6.81436 1.60771 8.19245C1.25584 9.57054 1.22352 11.0108 1.51322 12.4033C1.80291 13.7958 2.40695 15.1037 3.27923 16.2271C4.1515 17.3505 5.26895 18.2597 6.54624 18.8854C7.82354 19.5111 9.22691 19.8366 10.6492 19.8371L10.6488 21.0038C9.04872 21.0032 7.46996 20.637 6.03304 19.9331C4.59612 19.2293 3.33903 18.2064 2.35774 16.9426C1.37645 15.6788 0.696918 14.2074 0.371022 12.6409C0.0451264 11.0744 0.0814846 9.45414 0.477321 7.90383C0.873158 6.35352 1.61801 4.91415 2.655 3.69563C3.69199 2.4771 4.9937 1.51163 6.46075 0.872945C7.9278 0.234256 9.52139 -0.0607699 11.1199 0.0103927C12.7183 0.0815553 14.2794 0.517025 15.6839 1.28355L15.125 2.30761C13.8765 1.62624 12.4889 1.23914 11.068 1.17589Z" fill="#666766"/>
<path fill-rule="evenodd" clip-rule="evenodd" d="M12.3455 4.91472C11.1776 4.56005 9.92806 4.58024 8.77231 4.97244C7.61657 5.36464 6.61278 6.10915 5.90202 7.10131L4.95361 6.4219C5.80639 5.2315 7.01074 4.33824 8.39741 3.86767C9.78408 3.3971 11.2833 3.37289 12.6845 3.79842C14.0856 4.22395 15.3182 5.07785 16.209 6.24009C17.0998 7.40232 17.6039 8.81448 17.6507 10.2781C17.6974 11.7417 17.2844 13.1831 16.4696 14.3998C15.6548 15.6165 14.4792 16.5473 13.1081 17.0614C11.7369 17.5755 10.2392 17.647 8.82529 17.2658C7.41142 16.8847 6.15253 16.0701 5.22554 14.9365L6.12866 14.198C6.90127 15.1428 7.95053 15.8217 9.12894 16.1394C10.3074 16.457 11.5557 16.3975 12.6985 15.969C13.8413 15.5405 14.8211 14.7647 15.5002 13.7507C16.1793 12.7366 16.5236 11.5352 16.4846 10.3153C16.4457 9.09545 16.0255 7.91846 15.283 6.94977C14.5406 5.98108 13.5133 5.26939 12.3455 4.91472Z" fill="#666766"/>
</svg>
