<svg width="16" height="17" viewBox="0 0 16 17" fill="none" xmlns="http://www.w3.org/2000/svg">
<path fill-rule="evenodd" clip-rule="evenodd" d="M0 0H16V11.7132L8.22211 16.0596L0 11.7202V0ZM0.864865 0.864865V11.1987L8.21032 15.0755L15.1351 11.2057V0.864865H0.864865Z" fill="black"/>
<path d="M7.70112 8.51436L7.42389 2.81079H8.91856L8.6353 8.51436H7.70112ZM8.21944 11.027C7.98238 11.027 7.77747 10.9534 7.60469 10.8061C7.43594 10.6622 7.35156 10.4892 7.35156 10.2871C7.35156 10.085 7.43594 9.91198 7.60469 9.76811C7.77747 9.62424 7.98238 9.5523 8.21944 9.5523C8.45248 9.5523 8.65338 9.62424 8.82213 9.76811C8.99491 9.90856 9.08129 10.0816 9.08129 10.2871C9.08129 10.4926 8.99491 10.6673 8.82213 10.8112C8.64936 10.9551 8.44846 11.027 8.21944 11.027Z" fill="black"/>
</svg>
