<svg width="339" height="234" viewBox="0 0 339 234" fill="none" xmlns="http://www.w3.org/2000/svg">
<path fill-rule="evenodd" clip-rule="evenodd" d="M0 188.443C25.9942 196.183 54.6889 203.805 69.8593 205.362C98.0193 208.252 109.265 204.371 121.562 199.431C129.304 196.321 134.684 187.704 138.553 180.575C138.645 180.949 138.912 181.904 139.331 182.445C138.707 185.345 138.392 188.314 138.392 191.331C138.392 197.091 139.539 202.679 141.802 207.94C142.889 210.468 144.235 212.906 145.802 215.188C147.355 217.447 149.137 219.572 151.101 221.502C153.064 223.433 155.225 225.186 157.523 226.713C159.842 228.254 162.322 229.577 164.893 230.647C170.243 232.872 175.926 234 181.783 234C187.641 234 193.324 232.872 198.673 230.647C201.244 229.577 203.724 228.254 206.044 226.713C208.342 225.186 210.502 223.433 212.466 221.502C214.429 219.572 216.212 217.447 217.764 215.188C219.331 212.906 220.677 210.468 221.765 207.94C224.028 202.679 225.175 197.091 225.175 191.331C225.175 185.571 224.028 179.983 221.765 174.722C220.677 172.194 219.331 169.755 217.764 167.474C216.212 165.215 214.429 163.09 212.466 161.159C210.502 159.228 208.342 157.475 206.044 155.949C203.724 154.408 201.245 153.084 198.673 152.015C197.91 151.697 197.139 151.402 196.363 151.129C198.906 151.101 199.473 149.395 200.134 147.406C200.275 146.984 200.42 146.549 200.588 146.115C201.305 144.269 200.688 143.996 198.828 143.17C198.004 142.805 196.936 142.331 195.632 141.565C191.576 139.181 183.257 139.491 175.881 139.765L175.869 139.766L175.866 139.766C175.522 139.779 175.181 139.791 174.842 139.804C168.338 140.041 161.162 143.255 159.2 144.191C165.586 131.917 171.384 119.597 170.896 117.118C170.237 113.764 167.502 109.952 160.412 100.538C163.695 100.607 166.977 100.765 170.305 100.937C177.233 101.296 182.746 104.603 188.946 108.321L189.463 108.631C190.397 109.191 191.337 109.733 192.279 110.276C193.89 111.205 195.506 112.137 197.103 113.163C199.598 114.767 201.862 116.492 203.592 118.518C205.977 121.31 208.49 124.01 210.983 126.685L211.056 126.763L211.056 126.763L211.056 126.763C213.531 129.419 215.983 132.052 218.315 134.77C224.57 142.062 232.05 148.686 240.001 154.067C240.859 154.648 241.666 155.26 242.508 155.899L242.508 155.899L242.509 155.899C242.608 155.975 242.709 156.051 242.81 156.127C242.939 156.225 243.07 156.324 243.201 156.423C244.284 157.237 245.431 158.071 246.708 158.809C249.719 160.548 253.231 161.535 256.393 162.424C256.513 162.458 256.633 162.491 256.752 162.525C256.972 162.587 257.191 162.648 257.408 162.71C264.875 164.834 272.292 165.5 279.925 165.5C287.621 165.5 294.422 163.321 301.318 160.457C304.429 159.164 307.663 157.401 310.425 155.469C311 155.067 311.543 154.758 312.138 154.418L312.139 154.418L312.14 154.418C312.476 154.226 312.829 154.024 313.216 153.791C314.215 153.187 315.274 152.448 316.182 151.331C317.916 149.197 319.939 147.341 322.058 145.398L322.513 144.981C324.766 142.912 327.098 140.725 329.037 138.101C331.003 135.439 333.09 132.18 334.356 128.977C334.556 128.47 334.788 127.914 335.031 127.334L335.032 127.331L335.033 127.328C335.427 126.384 335.848 125.378 336.198 124.42C336.786 122.812 337.287 121.07 337.383 119.283C337.558 116.015 337.5 112.756 337.442 109.516V109.514C337.413 107.908 337.385 106.306 337.385 104.709L337.385 104.699C338.39 103.18 339.449 100.881 338.801 98.9681C338.042 96.7276 334.961 91.0241 332.226 88.4344C331.018 87.2903 329.836 86.208 328.891 85.342C327.696 84.2477 326.878 83.4988 326.861 83.4071C326.854 83.3695 326.996 83.2932 327.2 83.1834C327.887 82.8143 329.279 82.0662 328.09 81.1289C327.328 80.5284 326.201 80.0373 325.277 79.6346C324.33 79.2215 323.595 78.9015 323.688 78.652C323.698 78.6253 323.715 78.6005 323.738 78.5771C323.877 78.557 324.016 78.5362 324.155 78.5149L323.837 78.5036C323.965 78.4301 324.159 78.3682 324.381 78.2973C325.182 78.0416 326.347 77.6693 326.084 76.2152C325.995 75.7253 325.97 75.2916 325.947 74.9085C325.874 73.6511 325.832 72.9391 323.688 72.5778C322.792 72.4268 321.856 72.2088 320.948 71.9974C319.918 71.7575 318.925 71.5261 318.067 71.4108V15.332L302.978 12.9816V93.6373H318.067V91.4343C319.271 91.2976 320.516 91.1932 321.784 91.7847C324.274 92.946 329.046 97.3254 330.11 99.5537C330.514 100.4 330.606 100.961 330.683 101.427C330.809 102.189 330.893 102.697 332.226 103.782L332.323 103.862C332.367 103.897 332.41 103.932 332.453 103.967L332.577 104.069L332.588 104.079L332.589 104.079C333.258 104.626 333.853 105.113 334.387 105.461C334.394 106.91 334.419 108.322 334.444 109.714C334.501 112.886 334.556 115.956 334.387 119.123C334.315 120.478 333.927 121.897 333.381 123.39C333.042 124.315 332.683 125.173 332.316 126.047L332.315 126.05L332.315 126.051C332.067 126.642 331.815 127.242 331.565 127.875C330.438 130.728 328.524 133.746 326.624 136.318C324.877 138.683 322.745 140.694 320.483 142.771C320.322 142.919 320.16 143.068 319.998 143.217C317.912 145.129 315.732 147.127 313.853 149.439C313.264 150.165 312.543 150.692 311.663 151.224C311.41 151.377 311.123 151.541 310.817 151.716C310.147 152.1 309.387 152.535 308.705 153.011C306.127 154.815 303.084 156.475 300.167 157.686C293.406 160.494 287.036 162.5 279.925 162.5C272.466 162.5 265.344 161.848 258.228 159.824C257.902 159.732 257.577 159.64 257.253 159.549L257.237 159.544C254.012 158.635 250.873 157.75 248.209 156.211C247.096 155.568 246.068 154.825 245.005 154.026C244.791 153.865 244.574 153.7 244.355 153.534C243.505 152.889 242.615 152.214 241.682 151.583C233.946 146.347 226.668 139.901 220.592 132.817C218.22 130.052 215.732 127.381 213.271 124.739L213.27 124.739L213.177 124.639C210.679 121.958 208.21 119.305 205.873 116.569C203.867 114.221 201.324 112.31 198.725 110.64C197.08 109.582 195.335 108.575 193.673 107.616L193.672 107.616C192.747 107.082 191.847 106.563 191.005 106.058C190.903 105.997 190.801 105.935 190.698 105.874C190.562 105.792 190.426 105.71 190.29 105.629L190.278 105.622C184.248 102.001 178.15 98.3396 170.461 97.9412C166.351 97.7283 162.257 97.5349 158.125 97.5042C155.125 93.5272 151.481 88.6884 147.07 82.716C135.376 66.8824 124.8 55.4278 118.961 49.1035L118.961 49.1034C116.133 46.0409 114.416 44.1814 114.221 43.6102C114.099 43.2536 113.989 42.9893 113.904 42.7854C113.774 42.475 113.703 42.3043 113.738 42.1603C113.782 41.9845 113.985 41.8484 114.437 41.5461C114.565 41.4602 114.714 41.361 114.884 41.2437C115.668 40.7038 119.068 41.5105 122.598 42.3482C126.206 43.204 129.949 44.0922 131.18 43.6102C133.615 42.6565 134.846 40.0139 136.261 32.8827C137.356 27.3608 137.023 25.4732 136.61 23.1265C136.489 22.4426 136.362 21.7197 136.261 20.8565C135.813 17.0313 114.888 14 114.888 14L103.992 20.8565L88.7249 24.3639C88.7249 24.3639 87.0617 27.0388 88.7221 34.9409C89.7807 39.9794 93.9406 47.2053 97.9359 54.1454L97.9359 54.1454L97.936 54.1455C100.206 58.0896 102.424 61.9413 103.989 65.2468C108.307 74.3686 122.735 114.493 121.561 126.598C120.386 138.703 111.55 159.351 103.989 162.304C96.4271 165.256 70.2394 161.157 57.9435 158.492C45.6475 155.827 39.9291 149.656 38.22 142.651C36.5109 135.645 42.2931 117.121 42.2931 117.121C42.2931 117.121 22.3122 114.421 0.781692 111.133L42.9389 116.965C42.9389 116.965 50.7186 121.28 52.6486 108.799C54.5786 96.3186 54.9207 82.4142 39.3134 80.8028C32.117 80.0598 23.6778 80.6853 15.9217 81.2602H15.9216C9.90326 81.7063 4.29615 82.122 0 81.8441V188.443ZM299.296 4.61551C299.296 4.61551 291.654 -1.26233 286.437 0.248197C281.22 1.75872 272.122 4.99618 270.501 9.38206C268.88 13.7679 264.07 49.5199 266.196 67.1899C268.322 84.8598 272.338 109.947 280.535 114.245C288.732 118.542 301.168 113.081 302.583 108.134C303.555 104.738 302.522 85.6731 301.742 71.2828V71.2819C301.386 64.7074 301.082 59.1087 301.047 56.4262C301.011 53.6258 301.128 48.6098 301.26 42.9721C301.531 31.3891 301.864 17.182 301.047 14.1758C300.247 11.0326 299.661 7.8384 299.296 4.61551ZM140.776 176.388C141.353 175.295 141.889 174.293 142.388 173.42C142.35 173.502 142.311 173.584 142.273 173.666C142.231 173.759 142.188 173.851 142.146 173.944L140.776 176.388ZM181.783 163.004C185.608 163.004 189.318 163.753 192.811 165.23C196.184 166.657 199.214 168.699 201.816 171.301C204.418 173.902 206.46 176.932 207.887 180.305C209.364 183.797 210.113 187.507 210.113 191.331C210.113 195.155 209.364 198.865 207.887 202.357C206.46 205.73 204.418 208.759 201.816 211.361C199.214 213.962 196.184 216.005 192.811 217.431C189.318 218.909 185.608 219.658 181.783 219.658C177.959 219.658 174.249 218.909 170.756 217.431C167.383 216.005 164.353 213.962 161.751 211.361C159.149 208.759 157.106 205.73 155.68 202.357C154.202 198.865 153.453 195.155 153.453 191.331C153.453 187.507 154.202 183.797 155.68 180.305C157.106 176.932 159.149 173.902 161.751 171.301C164.353 168.699 167.383 166.657 170.756 165.23C174.249 163.753 177.959 163.004 181.783 163.004Z" fill="#2E2E2D"/>
</svg>
