<svg width="18" height="17" viewBox="0 0 18 17" fill="none" xmlns="http://www.w3.org/2000/svg">
<path fill-rule="evenodd" clip-rule="evenodd" d="M16.5139 0.971429H8.74242V11.6571H16.5139V0.971429ZM7.771 0V12.6286H17.4853V0H7.771Z" fill="black"/>
<path fill-rule="evenodd" clip-rule="evenodd" d="M0.971429 5.82853V6.64595H2.63267V5.82853H3.60409V7.61738H2.16809V13.908C2.16809 14.0423 2.19287 14.6779 2.58985 15.2734C2.77037 15.5442 3.03565 15.7362 3.30404 15.8618C3.5809 15.9914 3.81385 16.0285 3.88571 16.0285H12.1551C12.837 15.8631 13.5406 15.6763 14.1744 14.7772C14.3969 14.4616 14.4866 14.2316 14.531 13.8931C14.5736 13.5675 14.5729 13.1598 14.5718 12.5034C14.5716 12.3908 14.5714 12.2709 14.5714 12.1428H15.5429C15.5429 12.2646 15.5431 12.3812 15.5434 12.4931C15.5448 13.139 15.5459 13.6245 15.4942 14.0193C15.4279 14.5254 15.2747 14.9025 14.9684 15.337C14.1095 16.5554 13.0871 16.8026 12.3522 16.9803L12.271 17H3.88571C3.63846 17 3.26428 16.9157 2.89234 16.7417C2.51194 16.5637 2.08678 16.27 1.78158 15.8122C1.22925 14.9837 1.19667 14.1211 1.19667 13.908V7.61738H0V5.82853H0.971429Z" fill="black"/>
</svg>
