<svg width="17" height="17" viewBox="0 0 17 17" fill="none" xmlns="http://www.w3.org/2000/svg">
<path d="M7.24051 11.6875L6.57446 11.1086L8.30895 8.81179H6.375L9.00969 5.3125L9.67574 5.89138L8.16846 7.89226H10.0938L7.24051 11.6875Z" fill="#2E2E2D"/>
<path fill-rule="evenodd" clip-rule="evenodd" d="M12.5278 8.84651C12.525 8.24548 12.335 7.66024 11.9843 7.17216L12.2774 6.96151C12.6719 7.51051 12.8856 8.1688 12.8887 8.84485C12.8918 9.52091 12.6842 10.1811 12.2948 10.7337L11.9997 10.5258C12.346 10.0345 12.5305 9.44755 12.5278 8.84651Z" fill="#1D0F07"/>
<path fill-rule="evenodd" clip-rule="evenodd" d="M3.5272 8.83502C3.52995 8.23753 3.71879 7.65574 4.06747 7.17054L3.77607 6.96113C3.38387 7.5069 3.17146 8.1613 3.16837 8.83336C3.16527 9.50543 3.37165 10.1618 3.7588 10.7111L4.05212 10.5044C3.70792 10.016 3.52445 9.4325 3.5272 8.83502Z" fill="#1D0F07"/>
<path fill-rule="evenodd" clip-rule="evenodd" d="M8.5 15.9375C12.6076 15.9375 15.9375 12.6076 15.9375 8.5C15.9375 4.39238 12.6076 1.0625 8.5 1.0625C4.39238 1.0625 1.0625 4.39238 1.0625 8.5C1.0625 12.6076 4.39238 15.9375 8.5 15.9375ZM8.5 17C13.1944 17 17 13.1944 17 8.5C17 3.80558 13.1944 0 8.5 0C3.80558 0 0 3.80558 0 8.5C0 13.1944 3.80558 17 8.5 17Z" fill="black"/>
</svg>
