<svg width="23" height="23" viewBox="0 0 23 23" fill="none" xmlns="http://www.w3.org/2000/svg">
<path fill-rule="evenodd" clip-rule="evenodd" d="M11.2112 1.50179C8.9551 1.50179 7.03371 3.52528 7.03371 6.14081C7.03371 8.75635 8.9551 10.7798 11.2112 10.7798C13.4673 10.7798 15.3887 8.75635 15.3887 6.14081C15.3887 3.52528 13.4673 1.50179 11.2112 1.50179ZM5.82861 6.14081C5.82861 2.96667 8.1874 0.296692 11.2112 0.296692C14.235 0.296692 16.5938 2.96667 16.5938 6.14081C16.5938 9.31496 14.235 11.9849 11.2112 11.9849C8.1874 11.9849 5.82861 9.31496 5.82861 6.14081Z" fill="#E6740C"/>
<path fill-rule="evenodd" clip-rule="evenodd" d="M1.82862 21.2841H20.5913C19.1748 17.0507 15.4851 14.085 11.2099 14.085C6.93484 14.085 3.2456 17.0507 1.82862 21.2841ZM0.437921 21.734C1.76817 16.6526 6.05801 12.8799 11.2099 12.8799C16.3618 12.8799 20.6523 16.6526 21.982 21.7341L22.1795 22.4892H0.240234L0.437921 21.734Z" fill="#E6740C"/>
</svg>
